Murder by Claudine Longet 1976
==============================

This documentary shows how Claudine Longet, a minor U.S. celebrity with
considerable wealth available to buy her way out of the situation, murdered
her boyfriend in Aspen, Colorado, in 1976 and got away with only minor
prosecution of a most unusual type.
 
http://en.wikipedia.org/wiki/Claudine_Longet

--
Longet was arrested and charged with fatally shooting her boyfriend, Olympic
skier Vladimir "Spider" Sabich, at his Aspen, Colorado, home on 21 March
1976. At the sensational trial, Longet said the gun discharged accidentally
as Sabich was showing her how it worked.
--

Good quality XviD AVI, with an MD5 file and a surprise extra included.

----------

General
Format                           : AVI
Format/Info                      : Audio Video Interleave
File size                        : 622 MiB [652 Mb]
Duration                         : 40mn 58s
Overall bit rate                 : 2 122 Kbps

Video
Format                           : MPEG-4 Visual
Codec ID                         : XVID
Duration                         : 40mn 58s
Bit rate                         : 1 998 Kbps
Width                            : 720 pixels
Height                           : 480 pixels
Frame rate                       : 29.970 fps
Resolution                       : 24 bits
Scan type                        : Progressive
Stream size                      : 586 MiB (94%)

Audio
Format                           : MPEG Audio
Format version                   : Version 1
Format profile                   : Layer 3
Codec ID                         : 55
Codec ID/Hint                    : MP3
Duration                         : 40mn 58s
Bit rate mode                    : Constant
Bit rate                         : 112 Kbps
Channel(s)                       : 2 channels
Sampling rate                    : 48.0 KHz
Resolution                       : 16 bits
Stream size                      : 32.8 MiB (5%)

----------

Please seed as much as you can and remember that others depend upon you,
just as you depend upon them.

Distribute elsewhere, as much as you please.

Original seed will end at 2x.

----

LongetMurder1976.avi
Readme.nfo
RollingStones-Claudine.md5
RollingStones-Claudine.mp3

